<svg data-v-423bf9ae="" xmlns="http://www.w3.org/2000/svg" viewBox="0 0 547 90" class="iconLeft"><!----><!----><!----><g data-v-423bf9ae="" id="26f3f161-77ef-4467-be6b-655915d263bf" fill="white" transform="matrix(5.808325309113267,0,0,5.808325309113267,106.05035157904948,-4.748305174398702)"><path d="M5.51 4.16C2.75 4.16 0.68 6.32 0.68 8.94C0.68 11.57 2.75 13.73 5.51 13.73C6.84 13.73 7.89 13.26 8.53 12.69L8.53 11.46C7.89 11.95 6.90 12.52 5.51 12.52C3.46 12.52 1.94 10.99 1.94 8.94C1.94 6.89 3.46 5.36 5.51 5.36C6.90 5.36 7.64 6.07 8.26 6.49L8.26 5.14C7.62 4.57 6.84 4.16 5.51 4.16ZM13.73 6.55C12.80 6.55 11.92 7.23 11.50 7.77L11.50 3.68L10.38 3.68L10.38 13.52L11.50 13.52L11.50 8.98C12.04 8.27 12.81 7.64 13.54 7.64C14.62 7.64 15.12 8.29 15.12 9.46L15.13 13.52L16.26 13.52L16.26 9.35C16.26 7.46 15.12 6.55 13.73 6.55ZM21.19 6.55C19.32 6.55 17.90 7.96 17.90 10.21C17.90 12.29 19.32 13.73 21.08 13.73C22.12 13.73 22.96 13.08 23.43 12.36L23.43 13.52L24.55 13.52L24.55 6.69L23.43 6.69L23.43 7.60C22.85 6.95 21.97 6.55 21.19 6.55ZM21.40 7.64C22.23 7.64 22.85 8.07 23.42 8.78L23.43 10.09C23.45 11.55 22.50 12.63 21.26 12.63C19.93 12.63 19.06 11.54 19.06 10.21C19.06 8.89 19.93 7.64 21.40 7.64ZM27.97 5.26C28.49 5.26 28.90 4.81 28.90 4.33C28.90 3.84 28.49 3.40 27.97 3.40C27.44 3.40 27.04 3.84 27.04 4.33C27.04 4.81 27.44 5.26 27.97 5.26ZM28.67 6.69L26.47 6.69L26.47 7.74L27.55 7.74L27.55 13.52L28.67 13.52ZM34.44 6.55C33.51 6.55 32.63 7.23 32.21 7.77L32.21 6.69L31.09 6.69L31.09 13.52L32.21 13.52L32.21 8.98C32.76 8.27 33.52 7.64 34.25 7.64C35.33 7.64 35.83 8.29 35.83 9.46L35.85 13.52L36.97 13.52L36.97 9.35C36.97 7.46 35.83 6.55 34.44 6.55ZM41.64 4.22C40.02 4.22 38.61 5.35 38.61 6.79C38.61 7.82 38.99 8.59 40.30 9.17L41.82 9.86C42.38 10.10 43.13 10.49 43.13 11.17C43.13 11.98 42.33 12.46 41.41 12.46C40.25 12.46 39.33 11.99 38.62 11.50L38.62 12.77C39.28 13.23 40.20 13.66 41.25 13.66C42.93 13.66 44.39 12.61 44.39 11.12C44.39 9.97 43.75 9.37 42.49 8.79L41.23 8.22C40.48 7.88 39.88 7.57 39.88 6.84C39.88 5.85 40.95 5.43 41.78 5.43C42.63 5.43 43.38 5.84 43.90 6.22L43.90 4.95C43.37 4.61 42.72 4.22 41.64 4.22ZM49.59 6.55C48.66 6.55 47.78 7.23 47.36 7.77L47.36 3.68L46.24 3.68L46.24 13.52L47.36 13.52L47.36 8.98C47.91 8.27 48.67 7.64 49.40 7.64C50.48 7.64 50.98 8.29 50.98 9.46L51.00 13.52L52.12 13.52L52.12 9.35C52.12 7.46 50.98 6.55 49.59 6.55ZM55.33 5.26C55.85 5.26 56.26 4.81 56.26 4.33C56.26 3.84 55.85 3.40 55.33 3.40C54.80 3.40 54.40 3.84 54.40 4.33C54.40 4.81 54.80 5.26 55.33 5.26ZM56.03 6.69L53.83 6.69L53.83 7.74L54.91 7.74L54.91 13.52L56.03 13.52ZM64.41 9.87C64.41 8.00 63.37 6.55 61.26 6.55C59.34 6.55 57.97 8.20 57.97 10.14C57.97 12.09 59.46 13.73 61.54 13.73C62.60 13.73 63.31 13.26 63.59 12.99L63.59 11.85C63.14 12.18 62.52 12.63 61.54 12.63C60.22 12.63 59.32 11.69 59.16 10.54L64.41 10.54ZM59.19 9.58C59.38 8.50 60.14 7.64 61.26 7.64C62.22 7.64 63.16 8.26 63.30 9.58ZM67.38 13.52L67.38 3.68L66.25 3.68L66.25 13.52ZM75.88 13.52L75.88 3.68L74.76 3.68L74.76 7.60C74.17 6.95 73.29 6.55 72.52 6.55C70.64 6.55 69.22 7.96 69.22 10.21C69.22 12.29 70.64 13.73 72.41 13.73C73.45 13.73 74.28 13.08 74.76 12.36L74.76 13.52ZM72.72 7.67C73.55 7.67 74.17 8.07 74.74 8.78L74.76 10.09C74.77 11.55 73.83 12.63 72.58 12.63C71.26 12.63 70.38 11.54 70.38 10.21C70.38 8.89 71.26 7.67 72.72 7.67Z"></path></g><!----><g data-v-423bf9ae="" id="72111b30-6bcf-45bc-973a-c5e9eaa4b1d4" transform="matrix(2.8125,0,0,2.8125,0,0)" stroke="none" fill="white"><path d="M0 32h32V0H0v32zm19.377-19.492l6.936-6.936v20.855h-6.936V12.508zM5.688 5.572l6.936 6.936v13.919H5.688V5.572z"></path></g><!----></svg>